<mxfile host="Electron" modified="2024-02-09T00:07:26.764Z" agent="Mozilla/5.0 (Macintosh; Intel Mac OS X 10_15_7) AppleWebKit/537.36 (KHTML, like Gecko) draw.io/22.1.18 Chrome/120.0.6099.199 Electron/28.1.2 Safari/537.36" etag="WqFcejFy5B0MExzMbF_g" version="22.1.18" type="device">
  <diagram name="第 1 页" id="cs3dLo06Ov6Hg1Z0BaJZ">
    <mxGraphModel dx="1679" dy="548" grid="0" gridSize="10" guides="1" tooltips="1" connect="1" arrows="1" fold="1" page="1" pageScale="1" pageWidth="827" pageHeight="1169" math="0" shadow="0">
      <root>
        <mxCell id="0" />
        <mxCell id="1" parent="0" />
        <mxCell id="nuAxc10jakjFVsAVgVSb-1" value="" style="rounded=0;whiteSpace=wrap;html=1;strokeColor=none;fillColor=none;" parent="1" vertex="1">
          <mxGeometry x="-117" y="58.5" width="900" height="334" as="geometry" />
        </mxCell>
        <mxCell id="dhnhYLAWsHPOcBkNVLQ2-1" value="&lt;b style=&quot;font-size: 14px;&quot;&gt;Dask &lt;br&gt;Array&lt;/b&gt;" style="rounded=0;whiteSpace=wrap;html=1;fillColor=#90C9E6;strokeColor=#023047;fontSize=14;" parent="1" vertex="1">
          <mxGeometry x="-57" y="295.5" width="100" height="35" as="geometry" />
        </mxCell>
        <mxCell id="dhnhYLAWsHPOcBkNVLQ2-2" value="&lt;b style=&quot;font-size: 14px;&quot;&gt;Dask DataFrame&lt;br style=&quot;font-size: 14px;&quot;&gt;&lt;/b&gt;" style="rounded=0;whiteSpace=wrap;html=1;fillColor=#90C9E6;strokeColor=#023047;fontSize=14;" parent="1" vertex="1">
          <mxGeometry x="59" y="295.5" width="100" height="35" as="geometry" />
        </mxCell>
        <mxCell id="dhnhYLAWsHPOcBkNVLQ2-6" value="&lt;span style=&quot;font-size: 20px;&quot;&gt;&lt;b&gt;APIs&lt;/b&gt;&lt;/span&gt;" style="text;html=1;strokeColor=none;fillColor=none;align=center;verticalAlign=middle;whiteSpace=wrap;rounded=0;" parent="1" vertex="1">
          <mxGeometry x="26" y="65" width="90" height="30" as="geometry" />
        </mxCell>
        <mxCell id="dhnhYLAWsHPOcBkNVLQ2-8" value="" style="endArrow=classic;html=1;rounded=0;strokeWidth=3;strokeColor=#CCCCCC;" parent="1" edge="1">
          <mxGeometry width="50" height="50" relative="1" as="geometry">
            <mxPoint x="184" y="84.5" as="sourcePoint" />
            <mxPoint x="239" y="84.5" as="targetPoint" />
          </mxGeometry>
        </mxCell>
        <mxCell id="dhnhYLAWsHPOcBkNVLQ2-9" value="&lt;font style=&quot;font-size: 20px;&quot;&gt;&lt;b style=&quot;&quot;&gt;Task Graph&lt;/b&gt;&lt;/font&gt;" style="text;html=1;strokeColor=none;fillColor=none;align=center;verticalAlign=middle;whiteSpace=wrap;rounded=0;" parent="1" vertex="1">
          <mxGeometry x="354" y="67" width="118" height="30" as="geometry" />
        </mxCell>
        <mxCell id="dhnhYLAWsHPOcBkNVLQ2-11" value="" style="endArrow=classic;html=1;rounded=0;strokeWidth=3;strokeColor=#CCCCCC;" parent="1" edge="1">
          <mxGeometry width="50" height="50" relative="1" as="geometry">
            <mxPoint x="519" y="84.5" as="sourcePoint" />
            <mxPoint x="574" y="84.5" as="targetPoint" />
          </mxGeometry>
        </mxCell>
        <mxCell id="dhnhYLAWsHPOcBkNVLQ2-12" value="&lt;font style=&quot;font-size: 20px;&quot;&gt;&lt;b style=&quot;&quot;&gt;Scheduler&lt;/b&gt;&lt;/font&gt;" style="text;html=1;strokeColor=none;fillColor=none;align=center;verticalAlign=middle;whiteSpace=wrap;rounded=0;" parent="1" vertex="1">
          <mxGeometry x="650" y="65" width="90" height="30" as="geometry" />
        </mxCell>
        <mxCell id="dhnhYLAWsHPOcBkNVLQ2-15" value="" style="rounded=1;whiteSpace=wrap;html=1;dashed=1;strokeColor=#023047;" parent="1" vertex="1">
          <mxGeometry x="215" y="140" width="396" height="229" as="geometry" />
        </mxCell>
        <mxCell id="dhnhYLAWsHPOcBkNVLQ2-16" value="" style="whiteSpace=wrap;html=1;aspect=fixed;rounded=1;strokeColor=#000000;fillColor=#E6E6E6;strokeWidth=2;" parent="1" vertex="1">
          <mxGeometry x="229" y="168" width="39" height="39" as="geometry" />
        </mxCell>
        <mxCell id="dhnhYLAWsHPOcBkNVLQ2-19" value="" style="whiteSpace=wrap;html=1;aspect=fixed;rounded=1;strokeColor=#000000;fillColor=#E6E6E6;strokeWidth=2;" parent="1" vertex="1">
          <mxGeometry x="229" y="226" width="39" height="39" as="geometry" />
        </mxCell>
        <mxCell id="dhnhYLAWsHPOcBkNVLQ2-20" value="" style="whiteSpace=wrap;html=1;aspect=fixed;rounded=1;strokeColor=#000000;fillColor=#E6E6E6;strokeWidth=2;" parent="1" vertex="1">
          <mxGeometry x="229" y="292" width="39" height="39" as="geometry" />
        </mxCell>
        <mxCell id="dhnhYLAWsHPOcBkNVLQ2-24" value="" style="ellipse;whiteSpace=wrap;html=1;aspect=fixed;strokeWidth=2;fillColor=#E6E6E6;" parent="1" vertex="1">
          <mxGeometry x="314" y="201" width="38" height="38" as="geometry" />
        </mxCell>
        <mxCell id="dhnhYLAWsHPOcBkNVLQ2-23" value="" style="endArrow=classic;html=1;rounded=0;edgeStyle=orthogonalEdgeStyle;curved=1;startArrow=oval;startFill=0;strokeWidth=2;" parent="1" edge="1">
          <mxGeometry width="50" height="50" relative="1" as="geometry">
            <mxPoint x="271" y="187" as="sourcePoint" />
            <mxPoint x="310" y="220" as="targetPoint" />
            <Array as="points">
              <mxPoint x="280" y="187" />
              <mxPoint x="280" y="197" />
              <mxPoint x="279" y="197" />
              <mxPoint x="279" y="220" />
              <mxPoint x="298" y="220" />
            </Array>
          </mxGeometry>
        </mxCell>
        <mxCell id="dhnhYLAWsHPOcBkNVLQ2-30" value="" style="endArrow=none;html=1;curved=1;edgeStyle=orthogonalEdgeStyle;startArrow=oval;startFill=0;strokeWidth=2;" parent="1" edge="1">
          <mxGeometry width="50" height="50" relative="1" as="geometry">
            <mxPoint x="271" y="250" as="sourcePoint" />
            <mxPoint x="286" y="220" as="targetPoint" />
            <Array as="points">
              <mxPoint x="281" y="250" />
              <mxPoint x="281" y="220" />
            </Array>
          </mxGeometry>
        </mxCell>
        <mxCell id="dhnhYLAWsHPOcBkNVLQ2-32" value="" style="endArrow=classic;html=1;rounded=0;entryX=0.559;entryY=0.319;entryDx=0;entryDy=0;entryPerimeter=0;startArrow=oval;startFill=0;strokeWidth=2;" parent="1" edge="1">
          <mxGeometry width="50" height="50" relative="1" as="geometry">
            <mxPoint x="356" y="221" as="sourcePoint" />
            <mxPoint x="389.05999999999995" y="221.05100000000004" as="targetPoint" />
          </mxGeometry>
        </mxCell>
        <mxCell id="dhnhYLAWsHPOcBkNVLQ2-42" value="" style="whiteSpace=wrap;html=1;aspect=fixed;rounded=1;strokeColor=#000000;fillColor=#E6E6E6;strokeWidth=2;" parent="1" vertex="1">
          <mxGeometry x="393" y="206" width="39" height="39" as="geometry" />
        </mxCell>
        <mxCell id="dhnhYLAWsHPOcBkNVLQ2-43" value="" style="whiteSpace=wrap;html=1;aspect=fixed;rounded=1;strokeColor=#000000;fillColor=#E6E6E6;strokeWidth=2;" parent="1" vertex="1">
          <mxGeometry x="393" y="292" width="39" height="39" as="geometry" />
        </mxCell>
        <mxCell id="dhnhYLAWsHPOcBkNVLQ2-44" value="" style="endArrow=classic;html=1;rounded=0;edgeStyle=orthogonalEdgeStyle;curved=1;startArrow=oval;startFill=0;strokeWidth=2;" parent="1" edge="1">
          <mxGeometry width="50" height="50" relative="1" as="geometry">
            <mxPoint x="435" y="225" as="sourcePoint" />
            <mxPoint x="478" y="267" as="targetPoint" />
            <Array as="points">
              <mxPoint x="444" y="225" />
              <mxPoint x="444" y="235" />
              <mxPoint x="443" y="235" />
              <mxPoint x="443" y="267" />
              <mxPoint x="474" y="267" />
            </Array>
          </mxGeometry>
        </mxCell>
        <mxCell id="dhnhYLAWsHPOcBkNVLQ2-45" value="" style="endArrow=none;html=1;curved=1;edgeStyle=orthogonalEdgeStyle;startArrow=oval;startFill=0;strokeWidth=2;" parent="1" edge="1">
          <mxGeometry width="50" height="50" relative="1" as="geometry">
            <mxPoint x="437" y="312" as="sourcePoint" />
            <mxPoint x="452" y="266" as="targetPoint" />
            <Array as="points">
              <mxPoint x="447" y="312" />
              <mxPoint x="447" y="266" />
            </Array>
          </mxGeometry>
        </mxCell>
        <mxCell id="dhnhYLAWsHPOcBkNVLQ2-46" value="" style="endArrow=classic;html=1;rounded=0;entryX=0.559;entryY=0.319;entryDx=0;entryDy=0;entryPerimeter=0;startArrow=oval;startFill=0;strokeWidth=2;" parent="1" edge="1">
          <mxGeometry width="50" height="50" relative="1" as="geometry">
            <mxPoint x="272.94" y="311.02" as="sourcePoint" />
            <mxPoint x="305.99999999999994" y="311.071" as="targetPoint" />
          </mxGeometry>
        </mxCell>
        <mxCell id="dhnhYLAWsHPOcBkNVLQ2-47" value="" style="ellipse;whiteSpace=wrap;html=1;aspect=fixed;strokeWidth=2;fillColor=#E6E6E6;" parent="1" vertex="1">
          <mxGeometry x="314" y="292" width="38" height="38" as="geometry" />
        </mxCell>
        <mxCell id="dhnhYLAWsHPOcBkNVLQ2-48" value="" style="endArrow=classic;html=1;rounded=0;entryX=0.559;entryY=0.319;entryDx=0;entryDy=0;entryPerimeter=0;startArrow=oval;startFill=0;strokeWidth=2;" parent="1" edge="1">
          <mxGeometry width="50" height="50" relative="1" as="geometry">
            <mxPoint x="356" y="312" as="sourcePoint" />
            <mxPoint x="389.05999999999995" y="312.05100000000004" as="targetPoint" />
          </mxGeometry>
        </mxCell>
        <mxCell id="dhnhYLAWsHPOcBkNVLQ2-49" value="" style="whiteSpace=wrap;html=1;aspect=fixed;rounded=1;strokeColor=#000000;fillColor=#E6E6E6;strokeWidth=2;" parent="1" vertex="1">
          <mxGeometry x="563" y="248" width="39" height="39" as="geometry" />
        </mxCell>
        <mxCell id="dhnhYLAWsHPOcBkNVLQ2-50" value="" style="ellipse;whiteSpace=wrap;html=1;aspect=fixed;strokeWidth=2;fillColor=#E6E6E6;" parent="1" vertex="1">
          <mxGeometry x="484" y="249" width="38" height="38" as="geometry" />
        </mxCell>
        <mxCell id="dhnhYLAWsHPOcBkNVLQ2-51" value="" style="endArrow=classic;html=1;rounded=0;entryX=0.559;entryY=0.319;entryDx=0;entryDy=0;entryPerimeter=0;startArrow=oval;startFill=0;strokeWidth=2;" parent="1" edge="1">
          <mxGeometry width="50" height="50" relative="1" as="geometry">
            <mxPoint x="526" y="269" as="sourcePoint" />
            <mxPoint x="559.06" y="269.05100000000004" as="targetPoint" />
          </mxGeometry>
        </mxCell>
        <mxCell id="mGnTcvwYUXjs_XJhoS_D-1" value="&lt;font style=&quot;font-size: 16px;&quot;&gt;&lt;font style=&quot;font-size: 16px;&quot; face=&quot;Garamond&quot;&gt;import dask.dataframe as dd&lt;br&gt;&lt;br&gt;df = dd.read_parquet(&#39;path&#39;)&lt;br&gt;&lt;/font&gt;&lt;div style=&quot;&quot;&gt;&lt;font style=&quot;font-size: 16px;&quot; face=&quot;Garamond&quot;&gt;df = df[df.value1 &amp;gt;= 0]&lt;/font&gt;&lt;/div&gt;&lt;div style=&quot;&quot;&gt;&lt;font style=&quot;font-size: 16px;&quot; face=&quot;Garamond&quot;&gt;result = df.groupby(&quot;col11&quot;)&lt;/font&gt;&lt;span style=&quot;font-family: Garamond; background-color: initial;&quot;&gt;.value&lt;/span&gt;&lt;span style=&quot;font-family: Garamond; background-color: initial;&quot;&gt;.mean()&lt;/span&gt;&lt;/div&gt;&lt;font style=&quot;font-size: 16px;&quot; face=&quot;Garamond&quot;&gt;result = result.compute()&lt;/font&gt;&lt;br&gt;&lt;/font&gt;" style="rounded=0;whiteSpace=wrap;html=1;align=left;fillColor=none;" parent="1" vertex="1">
          <mxGeometry x="-100" y="145.5" width="308" height="139" as="geometry" />
        </mxCell>
        <mxCell id="mGnTcvwYUXjs_XJhoS_D-2" value="&lt;b style=&quot;font-size: 14px;&quot;&gt;Dask Bag&lt;/b&gt;" style="rounded=0;whiteSpace=wrap;html=1;fillColor=#90C9E6;strokeColor=#023047;fontSize=14;" parent="1" vertex="1">
          <mxGeometry x="-77" y="335" width="60" height="35" as="geometry" />
        </mxCell>
        <mxCell id="mGnTcvwYUXjs_XJhoS_D-3" value="&lt;b style=&quot;font-size: 14px;&quot;&gt;Dask Delayed&lt;/b&gt;" style="rounded=0;whiteSpace=wrap;html=1;fillColor=#90C9E6;strokeColor=#023047;fontSize=14;" parent="1" vertex="1">
          <mxGeometry x="-7" y="335" width="90" height="35" as="geometry" />
        </mxCell>
        <mxCell id="mGnTcvwYUXjs_XJhoS_D-4" value="&lt;b style=&quot;font-size: 14px;&quot;&gt;Dask Futures&lt;/b&gt;" style="rounded=0;whiteSpace=wrap;html=1;fillColor=#90C9E6;strokeColor=#023047;fontSize=14;" parent="1" vertex="1">
          <mxGeometry x="95" y="335" width="90" height="35" as="geometry" />
        </mxCell>
        <mxCell id="mGnTcvwYUXjs_XJhoS_D-6" value="Worker" style="rounded=0;whiteSpace=wrap;html=1;fontSize=24;fillColor=#FB8402;strokeColor=#36393d;fontFamily=Times New Roman;" parent="1" vertex="1">
          <mxGeometry x="635" y="140" width="120" height="60" as="geometry" />
        </mxCell>
        <mxCell id="mGnTcvwYUXjs_XJhoS_D-7" value="Worker" style="rounded=0;whiteSpace=wrap;html=1;fontSize=24;fillColor=#FB8402;strokeColor=#36393d;fontFamily=Times New Roman;" parent="1" vertex="1">
          <mxGeometry x="635" y="224.5" width="120" height="60" as="geometry" />
        </mxCell>
        <mxCell id="mGnTcvwYUXjs_XJhoS_D-8" value="Worker" style="rounded=0;whiteSpace=wrap;html=1;fontSize=24;fillColor=#FB8402;strokeColor=#36393d;fontFamily=Times New Roman;" parent="1" vertex="1">
          <mxGeometry x="635" y="305" width="120" height="60" as="geometry" />
        </mxCell>
        <mxCell id="mGnTcvwYUXjs_XJhoS_D-9" value="" style="endArrow=classic;html=1;rounded=0;exitX=1;exitY=0.5;exitDx=0;exitDy=0;entryX=0;entryY=0.5;entryDx=0;entryDy=0;edgeStyle=orthogonalEdgeStyle;" parent="1" source="dhnhYLAWsHPOcBkNVLQ2-15" target="mGnTcvwYUXjs_XJhoS_D-6" edge="1">
          <mxGeometry width="50" height="50" relative="1" as="geometry">
            <mxPoint x="887" y="265" as="sourcePoint" />
            <mxPoint x="937" y="215" as="targetPoint" />
          </mxGeometry>
        </mxCell>
        <mxCell id="mGnTcvwYUXjs_XJhoS_D-10" value="" style="endArrow=classic;html=1;rounded=0;exitX=1;exitY=0.5;exitDx=0;exitDy=0;entryX=0;entryY=0.5;entryDx=0;entryDy=0;" parent="1" source="dhnhYLAWsHPOcBkNVLQ2-15" target="mGnTcvwYUXjs_XJhoS_D-7" edge="1">
          <mxGeometry width="50" height="50" relative="1" as="geometry">
            <mxPoint x="621" y="265" as="sourcePoint" />
            <mxPoint x="645" y="180" as="targetPoint" />
          </mxGeometry>
        </mxCell>
        <mxCell id="mGnTcvwYUXjs_XJhoS_D-12" value="" style="endArrow=classic;html=1;rounded=0;exitX=1;exitY=0.5;exitDx=0;exitDy=0;entryX=0;entryY=0.5;entryDx=0;entryDy=0;edgeStyle=orthogonalEdgeStyle;" parent="1" source="dhnhYLAWsHPOcBkNVLQ2-15" target="mGnTcvwYUXjs_XJhoS_D-8" edge="1">
          <mxGeometry width="50" height="50" relative="1" as="geometry">
            <mxPoint x="989" y="269" as="sourcePoint" />
            <mxPoint x="1039" y="219" as="targetPoint" />
          </mxGeometry>
        </mxCell>
      </root>
    </mxGraphModel>
  </diagram>
</mxfile>
